<?xml version="1.0" encoding="UTF-8" standalone="no"?>
<!-- Created with Inkscape (http://www.inkscape.org/) -->

<svg
   xmlns:dc="http://purl.org/dc/elements/1.1/"
   xmlns:cc="http://creativecommons.org/ns#"
   xmlns:rdf="http://www.w3.org/1999/02/22-rdf-syntax-ns#"
   xmlns:svg="http://www.w3.org/2000/svg"
   xmlns="http://www.w3.org/2000/svg"
   xmlns:sodipodi="http://sodipodi.sourceforge.net/DTD/sodipodi-0.dtd"
   xmlns:inkscape="http://www.inkscape.org/namespaces/inkscape"
   width="311.20279"
   height="429.2247"
   viewBox="0 0 82.339081 113.56569"
   version="1.1"
   id="svg8"
   inkscape:version="0.92.2 (5c3e80d, 2017-08-06)"
   sodipodi:docname="oscal-map.svg">
  <defs
     id="defs2" />
  <sodipodi:namedview
     id="base"
     pagecolor="#ffffff"
     bordercolor="#666666"
     borderopacity="1.0"
     inkscape:pageopacity="0"
     inkscape:pageshadow="2"
     inkscape:zoom="2.9679935"
     inkscape:cx="289.13587"
     inkscape:cy="72.554799"
     inkscape:document-units="px"
     inkscape:current-layer="g921"
     inkscape:document-rotation="0"
     showgrid="false"
     borderlayer="true"
     inkscape:showpageshadow="true"
     units="px"
     inkscape:pagecheckerboard="false"
     showguides="true"
     inkscape:window-width="1366"
     inkscape:window-height="718"
     inkscape:window-x="0"
     inkscape:window-y="0"
     inkscape:window-maximized="1"
     objecttolerance="10"
     guidetolerance="10"
     inkscape:snap-tangential="true"
     inkscape:snap-perpendicular="true"
     fit-margin-top="0"
     fit-margin-left="0"
     fit-margin-right="0"
     fit-margin-bottom="0">
    <inkscape:grid
       type="xygrid"
       id="grid10"
       dotted="false"
       originx="-209.91657"
       originy="-82.768422" />
  </sodipodi:namedview>
  <metadata
     id="metadata5">
    <rdf:RDF>
      <cc:Work
         rdf:about="">
        <dc:format>image/svg+xml</dc:format>
        <dc:type
           rdf:resource="http://purl.org/dc/dcmitype/StillImage" />
        <dc:title />
        <cc:license
           rdf:resource="" />
      </cc:Work>
    </rdf:RDF>
  </metadata>
  <g
     inkscape:label="Layer 1"
     inkscape:groupmode="layer"
     id="layer1"
     transform="translate(-209.9165,-100.66587)">
    <g
       id="g867"
       transform="matrix(0.62314772,0,0,0.62314772,158.72377,133.28165)" />
    <g
       id="g938"
       transform="matrix(0.72478622,0,0,0.72478622,66.462619,28.635378)">
      <path
         style="opacity:1;fill:none;fill-opacity:1;fill-rule:nonzero;stroke:#ea272b;stroke-width:1.71979165;stroke-linecap:round;stroke-linejoin:miter;stroke-miterlimit:4;stroke-dasharray:none;stroke-opacity:1;paint-order:normal"
         d="m 120.64976,-50.198999 16.32617,-3.15177 -0.44125,10.58995 8.38371,7.123 19.85615,12.98529 8.69889,10.21174 5.42104,26.41183 -7.87942,10.40084 4.16033,1.82803 -13.74172,20.67561 -7.05996,2.96267 6.36657,16.01099 -15.25456,3.65605 -2.52142,-13.74172 -9.51834,0.31518 -0.25215,7.94246 -10.46387,-1.57588 -0.8825,-1.00857 1.70196,-6.61872 -4.34945,-1.63892 -0.44125,1.07161 -9.0974,-4.96571 2.78579,-4.65785 -3.25381,-2.40693 -0.6463,0.80231 -6.36659,-6.45326 -0.56731,-1.51285 2.20918,-5.42801 v -4.32355 l 2.49608,-3.47668 -2.68813,-12.5847497 -4.242935,-2.48084 0.15601,-3.65497 -1.49319,-0.24515 0.0669,-1.15889 -4.16268,-2.70340997 0.063,-1.60740003 3.24632,-8.7304003 0.91402,0.25214 c 0,0 1.954085,-3.18329 1.922565,-3.43543 -0.0315,-0.25214 -4.759165,-3.65606 -4.759165,-3.65606 l 6.475435,-7.73227 0.73545,0.4903 3.47668,-3.14238 -3.83326,-4.50185 0.13372,-1.93891 9.11513,-5.86132 3.67725,7.37679 8.27035,-3.09669 z"
         id="path829"
         inkscape:connector-curvature="0"
         transform="matrix(0.62314773,0,0,0.62314773,158.72377,133.28165)" />
      <g
         aria-label="PYRAMID"
         transform="matrix(0.62314773,0,0,0.62314773,158.72377,133.28165)"
         style="font-style:normal;font-variant:normal;font-weight:bold;font-stretch:normal;font-size:9.20428276px;line-height:1.25;font-family:'Open Sans';-inkscape-font-specification:'Open Sans Bold';text-align:start;text-anchor:start;opacity:1;fill:#ea272b;fill-opacity:1;fill-rule:nonzero;stroke:none;stroke-width:0;stroke-linecap:round;stroke-linejoin:miter;stroke-miterlimit:4;stroke-dasharray:none;stroke-opacity:1;paint-order:normal"
         id="text842">
        <path
           d="m 117.2617,7.8961279 h 0.45842 q 0.64268,0 0.96177,-0.2516796 0.3191,-0.2561739 0.3191,-0.741556 0,-0.4898764 -0.26966,-0.7235789 -0.26516,-0.2337025 -0.83594,-0.2337025 h -0.63369 z m 3.146,-1.0426727 q 0,1.0606498 -0.66516,1.6224346 -0.66066,0.5617849 -1.8831,0.5617849 H 117.2617 V 11.3747 h -1.39323 V 4.8040641 h 2.09883 q 1.19548,0 1.81569,0.5168421 0.62471,0.5123478 0.62471,1.532549 z"
           style="fill:#ea272b;fill-opacity:1;stroke:none;stroke-width:0;stroke-miterlimit:4;stroke-dasharray:none"
           id="path823" />
        <path
           d="m 123.702,7.5096199 1.37076,-2.7055558 h 1.50109 L 124.39412,8.817455 V 11.3747 h -1.38424 V 8.8623978 l -2.17972,-4.0583337 h 1.51008 z"
           style="fill:#ea272b;fill-opacity:1;stroke:none;stroke-width:0;stroke-miterlimit:4;stroke-dasharray:none"
           id="path825" />
        <path
           d="m 128.80301,7.720851 h 0.44943 q 0.66065,0 0.97525,-0.2202196 0.3146,-0.2202197 0.3146,-0.692119 0,-0.4674049 -0.32358,-0.6651532 -0.3191,-0.1977483 -0.99324,-0.1977483 h -0.42246 z m 0,1.1325582 V 11.3747 h -1.39323 V 4.8040641 h 1.91456 q 1.3393,0 1.98198,0.4898764 0.64268,0.4853821 0.64268,1.4786177 0,0.579762 -0.31909,1.0336841 -0.31909,0.4494279 -0.90335,0.7056018 1.48311,2.2156789 1.93254,2.8628559 h -1.54603 l -1.56851,-2.5212908 z"
           style="fill:#ea272b;fill-opacity:1;stroke:none;stroke-width:0;stroke-miterlimit:4;stroke-dasharray:none"
           id="path827" />
        <path
           d="m 137.50843,11.3747 -0.4764,-1.5640094 h -2.39545 L 134.16019,11.3747 h -1.50109 l 2.31905,-6.5976015 h 1.70333 l 2.32804,6.5976015 z m -0.80897,-2.7325219 q -0.66066,-2.1257938 -0.74605,-2.4044391 -0.0809,-0.2786452 -0.11686,-0.4404393 -0.14831,0.5752677 -0.84941,2.8448784 z"
           style="fill:#ea272b;fill-opacity:1;stroke:none;stroke-width:0;stroke-miterlimit:4;stroke-dasharray:none"
           id="path830" />
        <path
           d="m 142.61393,11.3747 -1.58199,-5.1549381 h -0.0404 q 0.0854,1.5729976 0.0854,2.0988282 V 11.3747 h -1.24491 V 4.8040641 h 1.89658 l 1.55502,5.0246036 h 0.027 l 1.6494,-5.0246036 h 1.89659 V 11.3747 h -1.29885 V 8.2646587 q 0,-0.2202196 0.004,-0.5078535 0.009,-0.2876338 0.0629,-1.5280547 h -0.0404 L 143.8903,11.3747 Z"
           style="fill:#ea272b;fill-opacity:1;stroke:none;stroke-width:0;stroke-miterlimit:4;stroke-dasharray:none"
           id="path832" />
        <path
           d="M 148.51491,11.3747 V 4.8040641 h 1.39323 V 11.3747 Z"
           style="fill:#ea272b;fill-opacity:1;stroke:none;stroke-width:0;stroke-miterlimit:4;stroke-dasharray:none"
           id="path834" />
        <path
           d="m 157.02258,8.026462 q 0,1.6224346 -0.92582,2.485336 -0.92133,0.862902 -2.66511,0.862902 h -1.86063 V 4.8040641 h 2.06288 q 1.60895,0 2.49882,0.8494187 0.88986,0.8494187 0.88986,2.3729792 z m -1.44715,0.035954 q 0,-2.1168053 -1.86962,-2.1168053 h -0.74156 v 4.2785531 h 0.59774 q 2.01344,0 2.01344,-2.1617478 z"
           style="fill:#ea272b;fill-opacity:1;stroke:none;stroke-width:0;stroke-miterlimit:4;stroke-dasharray:none"
           id="path836" />
      </g>
      <g
         transform="matrix(0.62314773,0,0,0.62314773,143.74732,143.62253)"
         id="g921">
        <path
           inkscape:connector-curvature="0"
           id="path855"
           d="m 209.78183,103.07158 14.75029,-3.05721 0.91529,3.41593 5.95514,-1.59567 -0.7888,-2.943846 8.39445,-1.7257 15.80105,76.575996 -7.91167,1.67148 -0.75774,-3.34296 -6.17332,1.35947 0.62402,2.96409 -15.11289,3.04581 z"
           style="opacity:1;fill:none;fill-opacity:1;fill-rule:nonzero;stroke:#ea272b;stroke-width:1.71979165;stroke-linecap:round;stroke-linejoin:miter;stroke-miterlimit:4;stroke-dasharray:none;stroke-opacity:1;paint-order:normal" />
        <g
           aria-label="PROTIK"
           style="font-style:normal;font-variant:normal;font-weight:bold;font-stretch:normal;font-size:6.43117142px;line-height:1.25;font-family:'Open Sans';-inkscape-font-specification:'Open Sans Bold';text-align:start;text-anchor:start;opacity:1;fill:#ea272b;fill-opacity:1;fill-rule:nonzero;stroke:none;stroke-width:0;stroke-linecap:round;stroke-linejoin:miter;stroke-miterlimit:4;stroke-dasharray:none;stroke-opacity:1;paint-order:normal"
           id="text859">
          <path
             d="m 221.78207,138.17015 h 0.32031 q 0.44905,0 0.672,-0.17586 0.22296,-0.17899 0.22296,-0.51813 0,-0.34229 -0.18841,-0.50558 -0.18528,-0.16329 -0.58409,-0.16329 h -0.44277 z m 2.19816,-0.72853 q 0,0.74109 -0.46475,1.13362 -0.46162,0.39252 -1.31576,0.39252 h -0.41765 v 1.63292 h -0.97346 v -4.591 h 1.46648 q 0.8353,0 1.26865,0.36112 0.43649,0.35799 0.43649,1.07082 z"
             style="fill:#ea272b;fill-opacity:1;stroke:none;stroke-width:0;stroke-miterlimit:4;stroke-dasharray:none"
             id="path839" />
          <path
             d="m 225.82668,138.04768 h 0.31402 q 0.46161,0 0.68143,-0.15387 0.21981,-0.15387 0.21981,-0.4836 0,-0.32658 -0.22609,-0.46475 -0.22296,-0.13817 -0.69399,-0.13817 h -0.29518 z m 0,0.79133 v 1.76167 h -0.97347 v -4.591 h 1.33773 q 0.93579,0 1.38484,0.34228 0.44905,0.33914 0.44905,1.03313 0,0.40509 -0.22295,0.72225 -0.22296,0.31402 -0.63119,0.49302 1.03627,1.54813 1.3503,2.00032 h -1.08024 l -1.09594,-1.76167 z"
             style="fill:#ea272b;fill-opacity:1;stroke:none;stroke-width:0;stroke-miterlimit:4;stroke-dasharray:none"
             id="path841" />
          <path
             d="m 233.26586,138.2989 q 0,1.1399 -0.56524,1.75224 -0.56524,0.61234 -1.62035,0.61234 -1.05512,0 -1.62036,-0.61234 -0.56524,-0.61234 -0.56524,-1.75852 0,-1.14618 0.56524,-1.74911 0.56838,-0.60606 1.62664,-0.60606 1.05825,0 1.61721,0.6092 0.5621,0.60921 0.5621,1.75225 z m -3.35062,0 q 0,0.76935 0.29204,1.15874 0.29205,0.38938 0.87299,0.38938 1.16502,0 1.16502,-1.54812 0,-1.55127 -1.15874,-1.55127 -0.58094,0 -0.87612,0.39252 -0.29519,0.38939 -0.29519,1.15875 z"
             style="fill:#ea272b;fill-opacity:1;stroke:none;stroke-width:0;stroke-miterlimit:4;stroke-dasharray:none"
             id="path843" />
          <path
             d="m 235.99471,140.60068 h -0.97347 v -3.78083 h -1.24666 v -0.81017 h 3.4668 v 0.81017 h -1.24667 z"
             style="fill:#ea272b;fill-opacity:1;stroke:none;stroke-width:0;stroke-miterlimit:4;stroke-dasharray:none"
             id="path845" />
          <path
             d="m 237.95421,140.60068 v -4.591 h 0.97347 v 4.591 z"
             style="fill:#ea272b;fill-opacity:1;stroke:none;stroke-width:0;stroke-miterlimit:4;stroke-dasharray:none"
             id="path847" />
          <path
             d="m 243.78246,140.60068 h -1.10536 l -1.20271,-1.93438 -0.41136,0.29518 v 1.6392 h -0.97347 v -4.591 h 0.97347 v 2.1008 l 0.3831,-0.54012 1.24353,-1.56068 h 1.08024 l -1.60152,2.03172 z"
             style="fill:#ea272b;fill-opacity:1;stroke:none;stroke-width:0;stroke-miterlimit:4;stroke-dasharray:none"
             id="path849" />
        </g>
      </g>
      <path
         inkscape:connector-curvature="0"
         id="path901-3"
         d="m 222.48943,143.44432 c 0,0 -24.0928,3.50249 -23.77439,3.92703 0.31841,0.42454 3.82088,19.74121 3.82088,19.74121 l 1.74156,1.64003 32.04601,19.32517 5.55365,-7.42988 6.7544,0.9006 14.55956,9.23103 39.02558,-7.5049 6.60433,33.39688 1.80116,10.80707 -12.90846,1.95129"
         style="opacity:1;fill:none;fill-opacity:1;fill-rule:nonzero;stroke:#ea272b;stroke-width:1.57504845;stroke-linecap:round;stroke-linejoin:miter;stroke-miterlimit:4;stroke-dasharray:1.57504847, 3.15009693;stroke-dashoffset:0;stroke-opacity:1;paint-order:normal" />
    </g>
  </g>
</svg>
